# xmcd
#
# Track frame offsets: 
#        150
#        2780
#        18304
#        37315
#        53585
#        68250
#        84758
#        86970
#        100629
#        121842
#        140113
#        159472
#        178397
#        193003
#        215346
#
# Disc length: 3152 seconds
#
# Revision: 0
# Processed by: cddbd v1.5.2PL0 Copyright (c) Steve Scherf et al.
# Submitted via: ExactAudioCopy v0.99pb4
#
DISCID=c40c4e0f
DTITLE=Esty - Optimistic
DYEAR=2006
DGENRE=R&B
TTITLE0=Optimistic (Intro)
TTITLE1=So Sexy Girl
TTITLE2=Crush
TTITLE3=Should It Be You
TTITLE4=Take You Home
TTITLE5=Let Me Know
TTITLE6=Club Intro (Skit)
TTITLE7=Take Your Love Away
TTITLE8=Only You
TTITLE9=Shorty
TTITLE10=Love Ain't Enough
TTITLE11=So Sexy (Remix)
TTITLE12=Tease
TTITLE13=By My Side
TTITLE14=Call On Me
EXTD=
EXTT0=
EXTT1=
EXTT2=
EXTT3=
EXTT4=
EXTT5=
EXTT6=
EXTT7=
EXTT8=
EXTT9=
EXTT10=
EXTT11=
EXTT12=
EXTT13=
EXTT14=
PLAYORDER=
